<svg xmlns="http://www.w3.org/2000/svg">
    <symbol id="accordion" viewBox="0 -960 960 960">
        <path style="fill: var(--icon-color)" d="M160-80v-80h640v80H160Zm320-120L320-360l56-56 64 62v-252l-64 62-56-56 160-160 160 160-56 56-64-62v252l64-62 56 56-160 160ZM160-800v-80h640v80H160Z"/>
    </symbol>
    <symbol id="account" viewBox="0 -960 960 960">
        <path style="fill: var(--icon-color)" d="M234-276q51-39 114-61.5T480-360q69 0 132 22.5T726-276q35-41 54.5-93T800-480q0-133-93.5-226.5T480-800q-133 0-226.5 93.5T160-480q0 59 19.5 111t54.5 93Zm246-164q-59 0-99.5-40.5T340-580q0-59 40.5-99.5T480-720q59 0 99.5 40.5T620-580q0 59-40.5 99.5T480-440Zm0 360q-83 0-156-31.5T197-197q-54-54-85.5-127T80-480q0-83 31.5-156T197-763q54-54 127-85.5T480-880q83 0 156 31.5T763-763q54 54 85.5 127T880-480q0 83-31.5 156T763-197q-54 54-127 85.5T480-80Zm0-80q53 0 100-15.5t86-44.5q-39-29-86-44.5T480-280q-53 0-100 15.5T294-220q39 29 86 44.5T480-160Zm0-360q26 0 43-17t17-43q0-26-17-43t-43-17q-26 0-43 17t-17 43q0 26 17 43t43 17Zm0-60Zm0 360Z"/>
    </symbol>
    <symbol id="button" viewBox="0 -960 960 960">
        <path style="fill: var(--icon-color)" d="M160-240q-33 0-56.5-23.5T80-320v-320q0-33 23.5-56.5T160-720h640q33 0 56.5 23.5T880-640v320q0 33-23.5 56.5T800-240H160Zm0-80h640v-320H160v320Zm130-40h60v-90h90v-60h-90v-90h-60v90h-90v60h90v90Zm-130 40v-320 320Z"/>
    </symbol>
    <symbol id="cards" viewBox="0 -960 960 960">
        <path style="fill: var(--icon-color)" d="M240-500v-220h220v220H240Zm0 260v-220h220v220H240Zm260-260v-220h220v220H500Zm0 260v-220h220v220H500ZM320-580h60v-60h-60v60Zm260 0h60v-60h-60v60ZM320-320h60v-60h-60v60Zm260 0h60v-60h-60v60ZM380-580Zm200 0Zm0 200Zm-200 0ZM200-120q-33 0-56.5-23.5T120-200v-560q0-33 23.5-56.5T200-840h560q33 0 56.5 23.5T840-760v560q0 33-23.5 56.5T760-120H200Zm0-80h560v-560H200v560Z"/>
    </symbol>
    <symbol id="close" viewBox="0 -960 960 960">
        <path style="fill: var(--icon-color)" d="m256-200-56-56 224-224-224-224 56-56 224 224 224-224 56 56-224 224 224 224-56 56-224-224-224 224Z"/>
    </symbol>
    <symbol id="code" viewBox="0 -960 960 960">
        <path style="fill: var(--icon-color)" d="M320-240 80-480l240-240 57 57-184 184 183 183-56 56Zm320 0-57-57 184-184-183-183 56-56 240 240-240 240Z"/>
    </symbol>
    <symbol id="dialog" viewBox="0 -960 960 960">
        <path style="fill: var(--icon-color)" d="M320-320h320v-320H320v320ZM200-120q-33 0-56.5-23.5T120-200v-560q0-33 23.5-56.5T200-840h560q33 0 56.5 23.5T840-760v560q0 33-23.5 56.5T760-120H200Zm0-80h560v-560H200v560Zm0-560v560-560Z"/>
    </symbol>
    <symbol id="flash" viewBox="0 -960 960 960">
        <path style="fill: var(--icon-color)" d="m480-336 128-184H494l80-280H360v320h120v144ZM400-80v-320H280v-480h400l-80 280h160L400-80Zm80-400H360h120Z"/>
    </symbol>
    <symbol id="image" viewBox="0 -960 960 960">
        <path style="fill: var(--icon-color)" d="M200-120q-33 0-56.5-23.5T120-200v-560q0-33 23.5-56.5T200-840h560q33 0 56.5 23.5T840-760v560q0 33-23.5 56.5T760-120H200Zm0-80h560v-560H200v560Zm40-80h480L570-480 450-320l-90-120-120 160Zm-40 80v-560 560Z"/>
    </symbol>
    <symbol id="list" viewBox="0 -960 960 960">
        <path style="fill: var(--icon-color)" d="M280-600v-80h560v80H280Zm0 160v-80h560v80H280Zm0 160v-80h560v80H280ZM160-600q-17 0-28.5-11.5T120-640q0-17 11.5-28.5T160-680q17 0 28.5 11.5T200-640q0 17-11.5 28.5T160-600Zm0 160q-17 0-28.5-11.5T120-480q0-17 11.5-28.5T160-520q17 0 28.5 11.5T200-480q0 17-11.5 28.5T160-440Zm0 160q-17 0-28.5-11.5T120-320q0-17 11.5-28.5T160-360q17 0 28.5 11.5T200-320q0 17-11.5 28.5T160-280Z"/>
    </symbol>
    <symbol id="log-out" viewBox="0 -960 960 960">
        <path style="fill: var(--icon-color)" d="M200-120q-33 0-56.5-23.5T120-200v-560q0-33 23.5-56.5T200-840h280v80H200v560h280v80H200Zm440-160-55-58 102-102H360v-80h327L585-622l55-58 200 200-200 200Z"/>
    </symbol>
    <symbol id="menu" viewBox="0 -960 960 960">
        <path style="fill: var(--icon-color)" d="M120-240v-80h720v80H120Zm0-200v-80h720v80H120Zm0-200v-80h720v80H120Z"/>
    </symbol>
    <symbol id="palette" viewBox="0 -960 960 960">
        <path style="fill: var(--icon-color)" d="M480-80q-82 0-155-31.5t-127.5-86Q143-252 111.5-325T80-480q0-83 32.5-156t88-127Q256-817 330-848.5T488-880q80 0 151 27.5t124.5 76q53.5 48.5 85 115T880-518q0 115-70 176.5T640-280h-74q-9 0-12.5 5t-3.5 11q0 12 15 34.5t15 51.5q0 50-27.5 74T480-80Zm0-400Zm-220 40q26 0 43-17t17-43q0-26-17-43t-43-17q-26 0-43 17t-17 43q0 26 17 43t43 17Zm120-160q26 0 43-17t17-43q0-26-17-43t-43-17q-26 0-43 17t-17 43q0 26 17 43t43 17Zm200 0q26 0 43-17t17-43q0-26-17-43t-43-17q-26 0-43 17t-17 43q0 26 17 43t43 17Zm120 160q26 0 43-17t17-43q0-26-17-43t-43-17q-26 0-43 17t-17 43q0 26 17 43t43 17ZM480-160q9 0 14.5-5t5.5-13q0-14-15-33t-15-57q0-42 29-67t71-25h70q66 0 113-38.5T800-518q0-121-92.5-201.5T488-800q-136 0-232 93t-96 227q0 133 93.5 226.5T480-160Z"/>
    </symbol>
    <symbol id="sidebar" viewBox="0 -960 960 960">
        <path style="fill: var(--icon-color)" d="M200-120q-33 0-56.5-23.5T120-200v-560q0-33 23.5-56.5T200-840h560q33 0 56.5 23.5T840-760v560q0 33-23.5 56.5T760-120H200Zm280-80h280v-560H480v560Z"/>
    </symbol>
    <symbol id="table" viewBox="0 -960 960 960">
        <path style="fill: var(--icon-color)" d="M120-120v-720h720v720H120Zm80-480h560v-160H200v160Zm213 200h134v-120H413v120Zm0 200h134v-120H413v120ZM200-400h133v-120H200v120Zm427 0h133v-120H627v120ZM200-200h133v-120H200v120Zm427 0h133v-120H627v120Z"/>
    </symbol>
    <symbol id="text" viewBox="0 -960 960 960">
        <path style="fill: var(--icon-color)" d="M420-160v-520H200v-120h560v120H540v520H420Z"/>
    </symbol>
    <symbol id="toggle" viewBox="0 -960 960 960">
        <path style="fill: var(--icon-color)" d="M280-240q-100 0-170-70T40-480q0-100 70-170t170-70h400q100 0 170 70t70 170q0 100-70 170t-170 70H280Zm0-80h400q66 0 113-47t47-113q0-66-47-113t-113-47H280q-66 0-113 47t-47 113q0 66 47 113t113 47Zm400-40q50 0 85-35t35-85q0-50-35-85t-85-35q-50 0-85 35t-35 85q0 50 35 85t85 35ZM480-480Z"/>
    </symbol>
    <symbol id="tooltip" viewBox="0 -960 960 960">
        <path style="fill: var(--icon-color)" d="M480-80 374-240H160q-33 0-56.5-23.5T80-320v-480q0-33 23.5-56.5T160-880h640q33 0 56.5 23.5T880-800v480q0 33-23.5 56.5T800-240H586L480-80ZM160-320h640v-480H160v480Zm0 0v-480 480Z"/>
    </symbol>
</svg>
